<?xml version="1.0" encoding="UTF-8"?>
<svg xmlns="http://www.w3.org/2000/svg" id="Completo" viewBox="0 0 650 120.16">
  <defs>
    <style>
      .cls-1 {
        fill: #f2f2f2;
        stroke-width: 0px;
      }
    </style>
  </defs>
  <g id="Claro">
    <path class="cls-1" d="m409.61,106.77c-1.57,0-3.13.02-4.7-.01-.49-.01-.72.16-.91.6-.63,1.5-1.3,2.97-1.93,4.47-.62,1.46-1.22,2.93-1.87,4.48-.26-.36-.31-.64-.4-.91-.93-2.71-1.96-5.39-3.06-8.04-.18-.44-.4-.61-.89-.6-1.57.04-3.13.01-4.7.01-.76,0-.76,0-.76.75,0,3.19,0,6.38,0,9.57,0,.73,0,1.45,0,2.18,0,.65.02.65.69.66.78,0,1.57,0,2.35,0,.73,0,.74-.01.74-.7,0-2.03-.02-4.06-.06-6.09-.02-1.46-.04-2.91-.14-4.38.15.17.23.35.3.53.4,1.12.8,2.23,1.21,3.35.8,2.23,1.61,4.47,2.41,6.7.11.3.18.6.62.59.99-.02,1.97-.01,2.96,0,.26,0,.44-.08.54-.34.07-.19.16-.37.24-.56,1.31-3.09,2.53-6.22,3.72-9.37.1-.25.11-.59.43-.76,0,.63.02,1.21,0,1.79-.13,2.84-.09,5.68-.1,8.52,0,.68.01.69.65.7.9,0,1.8,0,2.7,0,.61,0,.63-.02.63-.64,0-3.94,0-7.89,0-11.83,0-.67-.01-.68-.66-.69Z"></path>
    <path class="cls-1" d="m290.87,113.88c-.92-.57-1.94-.92-2.97-1.21-1.34-.37-2.69-.7-4.03-1.06-.56-.15-1.11-.34-1.58-.7-.78-.6-.76-1.56.05-2.12.19-.13.4-.24.62-.3,1.08-.32,2.18-.32,3.27-.06.75.18,1.32.6,1.57,1.36.1.3.25.42.56.42,1.04-.01,2.09-.02,3.13,0,.43,0,.47-.17.39-.54-.19-.81-.67-1.4-1.34-1.86-.66-.45-1.39-.71-2.16-.88-2.15-.46-4.32-.47-6.49-.12-1.09.18-2.15.49-3.07,1.15-.81.59-1.26,1.34-1.16,2.38.08.86.57,1.44,1.25,1.89.98.65,2.1.98,3.21,1.3,1.28.37,2.6.6,3.86,1.04.58.2,1.15.41,1.64.79.94.74.86,2-.18,2.6-.22.13-.47.23-.72.29-1.17.29-2.36.3-3.54.05-.96-.2-1.73-.68-2.09-1.65-.1-.27-.24-.35-.51-.35-1.19,0-2.37,0-3.65,0,.08,1.15.65,1.88,1.45,2.46.6.43,1.27.7,1.98.88,2.96.72,5.92.69,8.87-.06.9-.23,1.75-.63,2.42-1.31.88-.89,1.08-2.16.47-3.19-.3-.51-.74-.89-1.24-1.2Z"></path>
    <path class="cls-1" d="m518.44,113.53c-.76-.37-1.55-.65-2.36-.87-1.34-.36-2.69-.69-4.03-1.06-.56-.15-1.11-.35-1.57-.72-.73-.59-.71-1.5.04-2.07.26-.2.55-.31.87-.39.98-.24,1.96-.24,2.93-.03.81.17,1.45.59,1.71,1.43.08.26.22.38.5.38,1.19,0,2.37,0,3.62,0-.07-1.12-.59-1.82-1.35-2.36-.55-.39-1.17-.65-1.82-.8-2.73-.65-5.46-.64-8.18.09-.7.19-1.36.5-1.93.97-1.4,1.14-1.37,2.93.07,4.01.54.4,1.15.67,1.78.91.98.36,1.99.63,3,.88,1.01.25,2.03.49,3,.88.43.17.86.37,1.21.68.8.71.72,1.85-.17,2.45-.27.18-.56.3-.88.37-1.12.27-2.25.27-3.37.07-1.02-.19-1.87-.66-2.23-1.71-.12-.35-.37-.31-.62-.31-.99,0-1.97,0-2.96,0-.19,0-.41-.08-.56.15.09,1.03.67,1.76,1.48,2.33.58.41,1.22.68,1.9.84,2.99.73,5.98.71,8.95-.06.9-.24,1.75-.64,2.41-1.32,1.06-1.09,1.06-2.66,0-3.74-.41-.42-.91-.72-1.43-.97Z"></path>
    <path class="cls-1" d="m556.88,114.04c-.97-.68-2.07-1.04-3.18-1.36-1.34-.38-2.69-.7-4.03-1.06-.56-.15-1.11-.35-1.59-.69-.81-.59-.78-1.63.06-2.18.39-.26.84-.39,1.31-.44.67-.07,1.33-.09,2,0,.97.13,1.79.51,2.14,1.52.09.25.22.37.5.37,1.07-.01,2.15-.01,3.22,0,.32,0,.41-.15.36-.43-.1-.56-.36-1.03-.75-1.44-.6-.63-1.35-1.01-2.17-1.23-2.84-.75-5.68-.72-8.51.06-.62.17-1.19.45-1.71.84-1.54,1.16-1.52,3.04.04,4.16.4.29.85.5,1.3.69.89.37,1.81.63,2.73.87,1.2.32,2.43.56,3.59,1.02.49.19.97.4,1.35.77.71.69.63,1.75-.17,2.34-.26.19-.55.32-.86.39-1.14.29-2.3.3-3.45.08-1.01-.19-1.86-.66-2.22-1.72-.08-.23-.23-.3-.46-.3-1.21,0-2.43,0-3.7,0,.09,1.04.56,1.76,1.3,2.34.63.49,1.35.8,2.11.99,2.99.73,5.98.71,8.95-.07.9-.24,1.74-.64,2.41-1.33.54-.55.79-1.19.77-1.96-.03-.99-.54-1.68-1.32-2.23Z"></path>
    <path class="cls-1" d="m328.03,118.11c-2.64,0-5.28,0-7.93,0-.61,0-.62-.02-.63-.62,0-.99,0-1.97,0-2.96,0-.59.02-.6.64-.61,2.29,0,4.59,0,6.88,0,.32,0,.64.06.94-.07.1-.2.07-.4.06-.6-.02-1.28.17-1.11-1.1-1.12-2.26,0-4.53,0-6.79,0-.62,0-.63-.01-.64-.61-.01-.73,0-1.45,0-2.18,0-.71,0-.72.7-.72,2.41,0,4.82,0,7.23,0,.2,0,.41.02.61,0,.67-.1.36-.62.37-.96,0-.3.27-.81-.36-.87-.14-.01-.29,0-.44,0-3.8,0-7.61,0-11.41,0-.12,0-.23,0-.35,0-.34-.03-.47.14-.46.46,0,.17,0,.35,0,.52,0,3.74,0,7.49,0,11.23,0,.17,0,.35,0,.52,0,.29.12.43.41.42.2,0,.41,0,.61,0,3.45,0,6.91,0,10.36,0,.44,0,.87,0,1.31,0,.21,0,.43,0,.49-.25.13-.49.38-.96.36-1.49-.31-.14-.6-.07-.89-.07Z"></path>
    <path class="cls-1" d="m481.97,118.11c-2.47,0-4.93,0-7.4,0-.67,0-.67-.01-.68-.67,0-.93,0-1.86,0-2.78,0-.73,0-.74.78-.74,2.26,0,4.53,0,6.79,0,.2,0,.41,0,.61,0,.26,0,.36-.12.35-.37,0-.14,0-.29,0-.43-.01-1.12.11-.98-.97-.98-2.29,0-4.58,0-6.88,0-.68,0-.68-.01-.69-.66,0-.7,0-1.39,0-2.09,0-.76,0-.76.76-.76,2.41,0,4.82,0,7.22,0,.2,0,.41.02.61,0,.67-.1.36-.63.37-.96,0-.3.28-.82-.37-.87-.2-.02-.41,0-.61,0-3.54,0-7.08,0-10.62,0-.32,0-.64.01-.96,0-.34-.02-.48.13-.46.46,0,.14,0,.29,0,.43,0,3.8,0,7.6,0,11.4,0,.12.01.23,0,.35-.05.44.17.56.57.53.17-.02.35,0,.52,0,3.05,0,6.09,0,9.14,0,.81,0,1.62,0,2.44,0,.26,0,.47-.06.53-.33.11-.47.34-.92.35-1.44-.49-.11-.95-.05-1.41-.05Z"></path>
    <path class="cls-1" d="m446.94,118.14c-2.41,0-4.82,0-7.23,0-.2,0-.41,0-.61,0-.2,0-.32-.11-.33-.32,0-.23,0-.46,0-.7,0-3.1,0-6.21,0-9.31,0-.2,0-.41,0-.61,0-.28-.09-.43-.4-.43-1.1,0-2.21,0-3.31,0-.3,0-.42.13-.41.42,0,.17,0,.35,0,.52,0,3.77,0,7.54,0,11.31,0,.15,0,.29,0,.43-.02.32.09.5.44.48.2-.01.41,0,.61,0,3.42,0,6.85,0,10.27,0q1.62,0,1.81-1.72c-.27-.11-.56-.06-.84-.06Z"></path>
    <path class="cls-1" d="m650,107.35c0-.46-.15-.6-.6-.59-.96.03-1.91,0-2.87,0-.66,0-.67.01-.67.68,0,1.94,0,3.88,0,5.82,0,2,0,3.99,0,5.99,0,.66.01.66.68.67.9,0,1.8,0,2.69,0,.75,0,.75,0,.76-.77,0-2.72,0-5.44,0-8.16,0-1.22-.02-2.43,0-3.65Z"></path>
    <path class="cls-1" d="m576.3,34.26c6.94,10.13,13.68,20.29,20.73,30.34-.25.02-.37.03-.48.03-10.95-.14-21.89-.04-32.84-.08-.5,0-.85.09-1.17.53-5.75,7.94-11.52,15.87-17.29,23.81-.11.15-.31.28-.21.53h104.43c-.03-.36-.25-.57-.41-.79-17.07-24.7-34.15-49.41-51.23-74.1-1.48-2.15-2.88-4.36-4.54-6.38-3.57-4.38-8.03-7.23-13.72-7.96-.13-.02-.3.03-.32-.19h-4.88c-.07.3-.33.17-.5.2-4.55.63-8.44,2.62-11.74,5.79-1.39,1.33-2.61,2.8-3.72,4.37-1.29,1.82-2.59,3.64-3.88,5.47-16.7,23.55-33.41,47.09-50.12,70.64-.16.23-.27.5-.57.64-8.5-8.69-16.47-17.88-25.47-26.09.38-.24.76-.31,1.11-.43,7.91-2.81,13.69-7.93,16.94-15.72,2.25-5.39,2.68-11,1.83-16.74-.98-6.58-3.99-12.05-9.05-16.39-3.82-3.28-8.25-5.46-13.01-7.03-7.01-2.31-14.25-3.25-21.6-3.27-18.61-.06-37.22-.02-55.83-.03-.56,0-.9.18-1.23.61-6.18,7.99-12.38,15.96-18.56,23.94-.13.17-.36.31-.28.64h.94c25.26,0,50.52,0,75.78,0,1.98,0,3.94.12,5.88.57,1.77.42,3.42,1.07,4.85,2.24,2.67,2.16,3.65,7.46,0,10.41-1.05.85-2.21,1.49-3.47,1.96-2.37.89-4.84,1.19-7.35,1.19-21.75,0-43.49,0-65.24,0-3.08,0-6.16,0-9.23,0-.8,0-.76-.03-.76.76,0,.09,0,.17,0,.26v44.49c0,.17,0,.35,0,.52-.02.33.11.49.45.47.14-.01.29,0,.44,0,9.2,0,18.41,0,27.61,0,.8,0,.86.16.85-.85,0-.17,0-.35,0-.52,0-6.7,0-13.41,0-20.11,0-1.07-.12-1,.97-1,12.14,0,24.27,0,36.41-.01.58,0,.95.17,1.32.62,5.93,7.07,11.89,14.12,17.81,21.2.44.53.89.69,1.55.69,12.4-.01,24.8,0,37.19,0,10.42,0,20.85-.02,31.27,0,.88,0,1.4-.26,1.9-.98,12.6-17.85,25.22-35.68,37.84-53.52.16-.23.34-.45.56-.74Z"></path>
    <path class="cls-1" d="m145.58,1.42c-8.33,0-16.66,0-25,0-1.24,0-1.1-.18-1.1,1.11,0,15.26,0,30.53,0,45.79v.91c-.38,0-.5-.23-.66-.37-8.99-8.06-17.98-16.12-26.97-24.18-7.41-6.65-14.82-13.3-22.23-19.94-2.59-2.32-5.48-4.09-9.02-4.57-.1-.01-.14-.08-.15-.17h-4.36c-.29.37-.73.25-1.09.32-5.48,1.07-9.28,4.15-11.28,9.39-.99,2.58-1.27,5.28-1.27,8.03,0,23.56,0,47.12,0,70.69,0,.2,0,.41,0,.61-.02.34.15.47.48.45.2-.01.41,0,.61,0,8.25,0,16.49,0,24.74,0,1.23,0,1.09.17,1.09-1.13,0-15.26,0-30.53,0-45.79,0-.3-.06-.62.07-.97.35.16.56.4.79.61,16.4,14.71,32.79,29.42,49.19,44.14,1.63,1.46,3.4,2.72,5.45,3.52,2.98,1.17,6.06,1.28,9.16.67,5.18-1.02,8.9-3.92,10.97-8.82,1.15-2.72,1.52-5.58,1.52-8.5,0-23.62,0-47.24,0-70.86,0-1.04.07-.92-.95-.92Z"></path>
    <path class="cls-1" d="m28.9,1.41c-.2.03-.41,0-.61,0-9.08,0-18.17,0-27.25,0-.35,0-.7-.02-1.04-.02v88.11c.35,0,.7-.03,1.04-.03,9.11,0,18.22,0,27.34,0,1.23,0,1.09.17,1.09-1.13,0-28.6,0-57.2,0-85.8,0-.17-.01-.35,0-.52.04-.43-.08-.67-.57-.61Z"></path>
    <path class="cls-1" d="m374.74,64.57c-23.78,0-47.56,0-71.33,0-.2,0-.41,0-.61,0-.71-.01-.72-.01-.72-.72,0-2.23,0-4.47,0-6.7,0-1.26-.17-1.09,1.12-1.09,16.46,0,32.92,0,49.38.01.67,0,1.1-.19,1.52-.73,5.42-6.96,10.87-13.9,16.3-20.85.17-.22.4-.41.47-.81-.37,0-.7,0-1.04,0-22.06,0-44.13,0-66.19,0-.23,0-.46,0-.7,0-.86,0-.86,0-.86-.83,0-1.71,0-3.42,0-5.14,0-1.27-.19-1.12,1.09-1.12,17.39,0,34.78,0,52.17.01.71,0,1.16-.21,1.59-.78,6.04-7.88,12.1-15.73,18.15-23.6.17-.22.42-.4.46-.82h-.93c-33.65,0-67.3,0-100.95,0-1.19,0-1.05-.17-1.05,1.07,0,28.64,0,57.28,0,85.92,0,.2.01.41,0,.61-.02.34.14.47.47.45.14-.01.29,0,.44,0,27.47,0,54.93,0,82.39.01.59,0,.94-.2,1.29-.65,6.06-7.86,12.14-15.7,18.2-23.56.15-.19.4-.34.37-.66-.35-.1-.7-.05-1.04-.05Z"></path>
    <path class="cls-1" d="m169.68,1.4c-.65,0-1.05.18-1.45.7-6.04,7.87-12.1,15.73-18.16,23.6-.19.24-.45.45-.53.89h1.02c13.04,0,26.07,0,39.11,0,1.38,0,1.2-.16,1.2,1.2,0,20.23,0,40.45,0,60.68,0,1.17-.05.99.96.99,9.09,0,18.18,0,27.26,0,1.26,0,1.12.17,1.12-1.1,0-20.23,0-40.45,0-60.68,0-1.22-.18-1.09,1.13-1.09,9.23,0,18.47,0,27.7,0,.54,0,.9-.14,1.24-.59,6.11-7.97,12.24-15.92,18.37-23.87.15-.2.38-.36.39-.73h-.85c-32.84,0-65.68,0-98.51-.01Z"></path>
    <path class="cls-1" d="m362.17,107.2c-.16-.34-.37-.45-.74-.44-1.36.02-2.73.04-4.09,0-.56-.02-.81.21-1.03.68-1.82,3.92-3.66,7.82-5.49,11.73-.1.22-.31.43-.19.76,1.15,0,2.31-.01,3.47,0,.4,0,.56-.18.69-.51.34-.86.74-1.7,1.07-2.57.16-.43.4-.55.84-.55,1.71.02,3.43.02,5.14,0,.41,0,.62.12.77.51.35.89.75,1.76,1.11,2.64.11.25.2.47.54.46,1.27,0,2.54,0,3.86,0-.02-.21-.01-.27-.04-.32-1.97-4.13-3.95-8.26-5.91-12.4Zm-5.27,7.27c.71-1.92,1.59-3.7,2.27-5.79.84,2.01,1.62,3.85,2.43,5.79h-4.7Z"></path>
    <path class="cls-1" d="m617.72,107.16c-.17-.36-.43-.4-.77-.4-1.36.01-2.73.03-4.09-.01-.54-.02-.76.2-.97.65-1.84,3.94-3.69,7.87-5.53,11.81-.09.2-.27.39-.18.72,1.19,0,2.4,0,3.61,0,.33,0,.43-.21.54-.46.37-.88.76-1.75,1.11-2.65.15-.39.37-.51.78-.51,1.71.02,3.43.02,5.14,0,.44,0,.68.13.84.55.33.87.73,1.71,1.07,2.57.13.33.3.51.69.51,1.22-.02,2.43,0,3.73,0-.03-.2-.02-.29-.05-.36-1.97-4.13-3.95-8.26-5.92-12.4Zm-5.26,7.32c.72-1.93,1.6-3.71,2.21-5.6.35.38,2.24,4.88,2.36,5.6h-4.57Z"></path>
  </g>
</svg>
